<?xml version="1.0" encoding="UTF-8"?>
<svg width="51px" height="45px" viewBox="0 0 51 45" version="1.1" xmlns="http://www.w3.org/2000/svg" xmlns:xlink="http://www.w3.org/1999/xlink">
    <!-- Generator: Sketch 40.1 (33804) - http://www.bohemiancoding.com/sketch -->
    <title>Page 1</title>
    <desc>Created with Sketch.</desc>
    <defs>
        <polygon id="path-1" points="0 44.692605 50.5758947 44.692605 50.5758947 -4.5e-05 0 -4.5e-05"></polygon>
    </defs>
    <g id="Page-1" stroke="none" stroke-width="1" fill="none" fill-rule="evenodd">
        <g id="iPad-Portrait" transform="translate(-370.000000, -970.000000)">
            <g id="Page-1" transform="translate(370.000000, 970.000000)">
                <path d="M18.9650211,4.474395 C18.9650211,3.569895 18.2362579,2.836845 17.3370474,2.836845 C16.4378368,2.836845 15.7086263,3.569895 15.7086263,4.474395 C15.7086263,5.378895 16.4378368,6.111945 17.3370474,6.111945 C18.2362579,6.111945 18.9650211,5.378895 18.9650211,4.474395 L18.9650211,4.474395 Z" id="Fill-1" fill="#17C2C9"></path>
                <mask id="mask-2" fill="white">
                    <use xlink:href="#path-1"></use>
                </mask>
                <g id="Clip-4"></g>
                <polygon id="Fill-3" fill="#A2A3A3" mask="url(#mask-2)" points="0.275578947 44.692605 48.7935789 44.692605 48.7935789 43.342605 0.275578947 43.342605"></polygon>
                <polygon id="Fill-5" fill="#17C2C9" mask="url(#mask-2)" points="0.275578947 39.463605 5.60731579 39.463605 5.60731579 22.336155 0.275578947 22.336155"></polygon>
                <polygon id="Fill-6" fill="#728BF3" mask="url(#mask-2)" points="43.4618421 39.463605 48.7935789 39.463605 48.7935789 13.445955 43.4618421 13.445955"></polygon>
                <polygon id="Fill-7" fill="#728BF3" mask="url(#mask-2)" points="14.671 39.463605 20.0027368 39.463605 20.0027368 13.119705 14.671 13.119705"></polygon>
                <path d="M17.3368237,1.35 C15.6242974,1.35 14.2307447,2.75175 14.2307447,4.47435 C14.2307447,6.19695 15.6242974,7.5987 17.3368237,7.5987 C19.0497974,7.5987 20.4429026,6.19695 20.4429026,4.47435 C20.4429026,2.75175 19.0497974,1.35 17.3368237,1.35 M17.3368237,8.9487 C14.88435,8.9487 12.8886395,6.9417 12.8886395,4.47435 C12.8886395,2.00745 14.88435,0 17.3368237,0 C19.7897447,0 21.7850079,2.00745 21.7850079,4.47435 C21.7850079,6.9417 19.7897447,8.9487 17.3368237,8.9487" id="Fill-8" fill="#344154" mask="url(#mask-2)"></path>
                <path d="M47.7559079,4.8006 C47.7559079,3.8961 47.0271447,3.16305 46.1279342,3.16305 C45.2287237,3.16305 44.4995132,3.8961 44.4995132,4.8006 C44.4995132,5.7051 45.2287237,6.43815 46.1279342,6.43815 C47.0271447,6.43815 47.7559079,5.7051 47.7559079,4.8006" id="Fill-9" fill="#17C2C9" mask="url(#mask-2)"></path>
                <path d="M46.1278895,1.676295 C44.4149158,1.676295 43.0218105,3.078045 43.0218105,4.800645 C43.0218105,6.523245 44.4149158,7.924995 46.1278895,7.924995 C47.8404158,7.924995 49.2339684,6.523245 49.2339684,4.800645 C49.2339684,3.078045 47.8404158,1.676295 46.1278895,1.676295 M46.1278895,9.274995 C43.6749684,9.274995 41.6797053,7.267545 41.6797053,4.800645 C41.6797053,2.333295 43.6749684,0.326295 46.1278895,0.326295 C48.5803632,0.326295 50.5760737,2.333295 50.5760737,4.800645 C50.5760737,7.267545 48.5803632,9.274995 46.1278895,9.274995" id="Fill-10" fill="#344154" mask="url(#mask-2)"></path>
                <polygon id="Fill-11" fill="#17C2C9" mask="url(#mask-2)" points="29.0664211 39.463605 34.3981579 39.463605 34.3981579 21.357405 29.0664211 21.357405"></polygon>
                <path d="M31.7323789,11.103255 C30.8506158,11.103255 30.1330368,11.825055 30.1330368,12.712005 C30.1330368,13.598955 30.8506158,14.320755 31.7323789,14.320755 C32.6141421,14.320755 33.3317211,13.598955 33.3317211,12.712005 C33.3317211,11.825055 32.6141421,11.103255 31.7323789,11.103255 M31.7323789,15.670755 C30.1106684,15.670755 28.7909316,14.343705 28.7909316,12.712005 C28.7909316,11.080755 30.1106684,9.753255 31.7323789,9.753255 C33.3545368,9.753255 34.6738263,11.080755 34.6738263,12.712005 C34.6738263,14.343705 33.3545368,15.670755 31.7323789,15.670755" id="Fill-12" fill="#344154" mask="url(#mask-2)"></path>
                <path d="M2.94131316,12.081915 C2.05955,12.081915 1.34197105,12.803715 1.34197105,13.690665 C1.34197105,14.577615 2.05955,15.299415 2.94131316,15.299415 C3.82307632,15.299415 4.54065526,14.577615 4.54065526,13.690665 C4.54065526,12.803715 3.82307632,12.081915 2.94131316,12.081915 M2.94131316,16.649415 C1.31915526,16.649415 -0.000134210526,15.322365 -0.000134210526,13.690665 C-0.000134210526,12.059415 1.31915526,10.731915 2.94131316,10.731915 C4.56302368,10.731915 5.88276053,12.059415 5.88276053,13.690665 C5.88276053,15.322365 4.56302368,16.649415 2.94131316,16.649415" id="Fill-13" fill="#344154" mask="url(#mask-2)"></path>
                <polygon id="Fill-14" fill="#A2A3A3" mask="url(#mask-2)" points="4.99075263 12.758445 4.29375263 11.604645 13.7421737 5.832945 14.4391737 6.987195"></polygon>
                <polygon id="Fill-15" fill="#A2A3A3" mask="url(#mask-2)" points="29.1053868 11.97864 20.4613342 6.52239 21.1748868 5.37894 29.8189395 10.83519"></polygon>
                <polygon id="Fill-16" fill="#A2A3A3" mask="url(#mask-2)" points="34.0644658 12.212865 33.3965447 11.041515 42.3895447 5.852565 43.0574658 7.023915"></polygon>
            </g>
        </g>
    </g>
</svg>