<?xml version="1.0" encoding="UTF-8"?>
<svg width="50px" height="40px" viewBox="0 0 50 40" version="1.1" xmlns="http://www.w3.org/2000/svg" xmlns:xlink="http://www.w3.org/1999/xlink">
    <!-- Generator: Sketch 40.1 (33804) - http://www.bohemiancoding.com/sketch -->
    <title>Page 1</title>
    <desc>Created with Sketch.</desc>
    <defs>
        <polygon id="path-1" points="5.82859336 0.169361702 0.0204135067 0.169361702 0.0204135067 16.1535745 5.82859336 16.1535745 5.82859336 0.169361702"></polygon>
        <polygon id="path-3" points="0 39.8304681 49.9292886 39.8304681 49.9292886 0.425361702 0 0.425361702"></polygon>
    </defs>
    <g id="Page-1" stroke="none" stroke-width="1" fill="none" fill-rule="evenodd">
        <g id="Desktop-HD-Copy-2" transform="translate(-275.000000, -703.000000)">
            <g id="Page-1" transform="translate(275.000000, 703.000000)">
                <path d="M44.7367801,5.53808511 L44.7367801,15.7721277 L42.4796909,15.7721277 L42.4796909,5.53808511 C42.4796909,3.06489362 40.4542412,1.06404255 37.9564875,1.06404255 L40.2183041,1.06404255 C42.7160578,1.06404255 44.7367801,3.06489362 44.7367801,5.53808511 L44.7367801,5.53808511 Z" id="Fill-1" fill="#728BF3"></path>
                <path d="M44.7367801,24.4865532 L44.7367801,34.7159149 C44.7367801,37.1891064 42.7160578,39.1899574 40.2183041,39.1899574 L37.9564875,39.1899574 C40.4542412,39.1899574 42.4796909,37.1891064 42.4796909,34.7159149 L42.4796909,24.4865532 L44.7367801,24.4865532 Z" id="Fill-3" fill="#728BF3"></path>
                <g id="Group-7" transform="translate(30.942579, 14.724085)" fill="#9D9D9D">
                    <path d="M2.21888371,1.68548936 C1.74529036,1.68548936 1.35936764,2.06761702 1.35936764,2.53655319 L1.35936764,8.27187234 C1.35936764,8.74080851 1.74529036,9.12293617 2.21888371,9.12293617 L16.8379628,9.12293617 C17.3115562,9.12293617 17.6974789,8.74080851 17.6974789,8.27187234 L17.6974789,2.53655319 C17.6974789,2.06761702 17.3115562,1.68548936 16.8379628,1.68548936 L2.21888371,1.68548936 Z M16.8379628,10.3995319 L2.21888371,10.3995319 C1.03404081,10.3995319 0.0700935356,9.4446383 0.0700935356,8.27187234 L0.0700935356,2.53655319 C0.0700935356,1.3633617 1.03404081,0.408893617 2.21888371,0.408893617 L16.8379628,0.408893617 C18.0223759,0.408893617 18.986753,1.3633617 18.986753,2.53655319 L18.986753,8.27187234 C18.986753,9.4446383 18.0223759,10.3995319 16.8379628,10.3995319 L16.8379628,10.3995319 Z" id="Fill-5"></path>
                </g>
                <path d="M42.5015655,39.8304681 L5.16332792,39.8304681 C2.31618093,39.8304681 0.000214879018,37.5368511 0.000214879018,34.7181277 L0.000214879018,5.53812766 C0.000214879018,2.71897872 2.31618093,0.425361702 5.16332792,0.425361702 L42.5015655,0.425361702 C45.3482828,0.425361702 47.6646786,2.71897872 47.6646786,5.53812766 L47.6646786,15.7713191 C47.6646786,16.1236596 47.3758812,16.409617 47.0200415,16.409617 C46.6642019,16.409617 46.3754045,16.1236596 46.3754045,15.7713191 L46.3754045,5.53812766 C46.3754045,3.42280851 44.637463,1.70195745 42.5015655,1.70195745 L5.16332792,1.70195745 C3.02743048,1.70195745 1.28948899,3.42280851 1.28948899,5.53812766 L1.28948899,34.7181277 C1.28948899,36.8330213 3.02743048,38.5538723 5.16332792,38.5538723 L42.5015655,38.5538723 C44.637463,38.5538723 46.3754045,36.8330213 46.3754045,34.7181277 L46.3754045,24.4849362 C46.3754045,24.1325957 46.6642019,23.8466383 47.0200415,23.8466383 C47.3758812,23.8466383 47.6646786,24.1325957 47.6646786,24.4849362 L47.6646786,34.7181277 C47.6646786,37.5368511 45.3482828,39.8304681 42.5015655,39.8304681" id="Fill-8" fill="#979797"></path>
                <path d="M37.6244135,39.8304681 C37.2685739,39.8304681 36.9797765,39.5445106 36.9797765,39.1921702 C36.9797765,38.8398298 37.2685739,38.5538723 37.6244135,38.5538723 C39.7607407,38.5538723 41.4986822,36.8330213 41.4986822,34.7181277 L41.4986822,24.4849362 C41.4986822,24.1325957 41.7874796,23.8466383 42.1433192,23.8466383 C42.4991589,23.8466383 42.7879563,24.1325957 42.7879563,24.4849362 L42.7879563,34.7181277 C42.7879563,37.5368511 40.4715605,39.8304681 37.6244135,39.8304681" id="Fill-10" fill="#848282"></path>
                <g id="Group-14" transform="translate(36.959191, 0.256000)">
                    <mask id="mask-2" fill="white">
                        <use xlink:href="#path-1"></use>
                    </mask>
                    <g id="Clip-13"></g>
                    <path d="M5.1839563,16.1535745 C4.82811665,16.1535745 4.53931925,15.867617 4.53931925,15.5152766 L4.53931925,5.28208511 C4.53931925,3.16719149 2.80137775,1.44591489 0.66505056,1.44591489 C0.309210906,1.44591489 0.0204135067,1.16038298 0.0204135067,0.807617021 C0.0204135067,0.455276596 0.309210906,0.169319149 0.66505056,0.169319149 C3.51219754,0.169319149 5.82859336,2.46293617 5.82859336,5.28208511 L5.82859336,15.5152766 C5.82859336,15.867617 5.53979596,16.1535745 5.1839563,16.1535745" id="Fill-12" fill="#848282" mask="url(#mask-2)"></path>
                </g>
                <path d="M36.3846475,18.825234 C35.659216,18.825234 35.0691582,19.4094894 35.0691582,20.1282128 C35.0691582,20.8465106 35.659216,21.4311915 36.3846475,21.4311915 C37.1105088,21.4311915 37.7009964,20.8465106 37.7009964,20.1282128 C37.7009964,19.4094894 37.1105088,18.825234 36.3846475,18.825234 M36.3846475,22.7077872 C34.9479664,22.7077872 33.7798841,21.5503404 33.7798841,20.1282128 C33.7798841,18.7056596 34.9479664,17.5486383 36.3846475,17.5486383 C37.8213286,17.5486383 38.9898407,18.7056596 38.9898407,20.1282128 C38.9898407,21.5503404 37.8213286,22.7077872 36.3846475,22.7077872" id="Fill-15" fill="#17C2C9"></path>
                <mask id="mask-4" fill="white">
                    <use xlink:href="#path-3"></use>
                </mask>
                <g id="Clip-18"></g>
                <polygon id="Fill-17" fill="#B3B3B3" mask="url(#mask-4)" points="3.72557241 6.61557447 5.01484651 6.61557447 5.01484651 5.21302128 3.72557241 5.21302128"></polygon>
                <polygon id="Fill-19" fill="#B3B3B3" mask="url(#mask-4)" points="3.72557241 11.3534468 5.01484651 11.3534468 5.01484651 9.95089362 3.72557241 9.95089362"></polygon>
                <polygon id="Fill-20" fill="#B3B3B3" mask="url(#mask-4)" points="3.72557241 16.0917447 5.01484651 16.0917447 5.01484651 14.688766 3.72557241 14.688766"></polygon>
                <polygon id="Fill-21" fill="#B3B3B3" mask="url(#mask-4)" points="3.72557241 20.829617 5.01484651 20.829617 5.01484651 19.4270638 3.72557241 19.4270638"></polygon>
                <polygon id="Fill-22" fill="#B3B3B3" mask="url(#mask-4)" points="3.72557241 25.5670638 5.01484651 25.5670638 5.01484651 24.1645106 3.72557241 24.1645106"></polygon>
                <polygon id="Fill-23" fill="#B3B3B3" mask="url(#mask-4)" points="3.72557241 30.3049362 5.01484651 30.3049362 5.01484651 28.902383 3.72557241 28.902383"></polygon>
                <polygon id="Fill-24" fill="#B3B3B3" mask="url(#mask-4)" points="3.72557241 35.043234 5.01484651 35.043234 5.01484651 33.6402553 3.72557241 33.6402553"></polygon>
                <path d="M19.2991011,27.7348085 C18.8302351,27.708 18.4180971,27.6092766 18.0790181,27.5224681 C17.7339224,27.4339574 17.3991408,27.3433191 17.0609213,27.1862979 L17.0785414,25.3228936 C17.6668801,25.5394894 17.9092636,25.615234 18.5074868,25.7505532 C19.1770498,25.9020426 19.6441968,25.9458723 20.0993106,25.9458723 C20.8943629,25.9458723 21.5325536,25.7309787 22.0151719,25.3003404 C22.4973604,24.8701277 22.7388844,24.321617 22.7388844,23.6556596 C22.7388844,23.2386383 22.6688339,22.8692766 22.530022,22.5458723 C22.3903507,22.2228936 22.2003976,21.9628936 21.9588736,21.7641702 C21.7177793,21.5658723 21.1694081,21.268 20.3137598,20.8709787 L19.1112969,20.3165106 C18.0923406,19.8454468 17.3802315,19.2871489 16.9766887,18.641617 C16.5722864,17.995234 16.3703001,17.2190638 16.3703001,16.3105532 C16.3703001,15.3756596 16.6668332,14.561617 17.2616183,13.8688511 C17.8559736,13.1760851 18.4580646,12.8828936 19.2948035,12.6356596 L19.306407,10.9428936 L21.2519216,10.9428936 L21.2437562,12.5292766 C22.1711741,12.5522553 22.8931676,12.8454468 23.4303651,13.1475745 L23.4316544,15.0292766 C23.1600473,14.834383 22.7457606,14.6458723 22.1883644,14.4645957 C21.631398,14.2824681 21.1148288,14.1918298 20.6399462,14.1918298 C19.9467465,14.1918298 19.4018133,14.3871489 19.0042871,14.7773617 C18.6067609,15.1675745 18.4082127,15.6684255 18.4082127,16.2803404 C18.4082127,16.6569362 18.4795525,16.9999149 18.6218025,17.3097021 C18.7644821,17.6190638 18.9681874,17.881617 19.2333481,18.0965106 C19.4985088,18.3122553 20.0142185,18.6011915 20.7821961,18.9641702 L21.7199281,19.3977872 C22.7797114,19.8892766 23.5537057,20.4897021 24.0432001,21.1990638 C24.5322647,21.9088511 24.776797,22.8186383 24.776797,23.928 C24.776797,24.8433191 24.4488917,25.6454468 23.7930809,26.3348085 C23.1376999,27.0241702 22.4367645,27.4054468 21.2755583,27.600766 L21.27255,29.3135319 L19.306407,29.3135319 L19.2991011,27.7348085 Z" id="Fill-25" fill="#17C2C9" mask="url(#mask-4)"></path>
            </g>
        </g>
    </g>
</svg>