<?xml version="1.0" encoding="UTF-8"?>
<svg width="163px" height="38px" viewBox="0 0 163 38" version="1.1" xmlns="http://www.w3.org/2000/svg" xmlns:xlink="http://www.w3.org/1999/xlink">
    <!-- Generator: Sketch 40.1 (33804) - http://www.bohemiancoding.com/sketch -->
    <title>Page 1 Copy</title>
    <desc>Created with Sketch.</desc>
    <defs>
        <polygon id="path-1" points="11.0902692 13.6338933 11.0902692 0.356693333 0.405243077 0.356693333 0.405243077 13.6338933 11.0902692 13.6338933"></polygon>
        <polygon id="path-3" points="0 0.43168 0 17.44048 10.7251492 17.44048 10.7251492 0.43168 1.6992784e-20 0.43168"></polygon>
    </defs>
    <g id="Page-1" stroke="none" stroke-width="1" fill="none" fill-rule="evenodd">
        <g id="iPad-Portrait" transform="translate(-61.000000, -32.000000)">
            <g id="Page-1-Copy" transform="translate(61.000000, 32.000000)">
                <path d="M42.2858362,18.1242267 C42.2858362,15.33756 44.5176823,12.87896 47.6284746,12.87896 C50.2602977,12.87896 52.11599,14.6750933 52.6940131,16.90316 C52.6927592,16.9056933 52.6915054,16.90696 52.6902515,16.9094933 L50.1148515,17.3376267 C50.1135977,17.33636 50.1123438,17.33636 50.1098362,17.3350933 C49.7838362,15.91896 48.7807592,15.2108933 47.6284746,15.2108933 C46.1476823,15.2108933 44.8436823,16.32556 44.8436823,18.6308933 L44.8436823,20.4054933 C44.8436823,22.7108267 46.1476823,23.8254933 47.6284746,23.8254933 C48.7807592,23.8254933 49.7838362,23.1174267 50.1098362,21.7012933 C50.1123438,21.7000267 50.1135977,21.7000267 50.1148515,21.69876 L52.6902515,22.12816 C52.6915054,22.1294267 52.6927592,22.1306933 52.6940131,22.1332267 C52.11599,24.3600267 50.2602977,26.1574267 47.6284746,26.1574267 C44.5176823,26.1574267 42.2858362,23.6988267 42.2858362,20.91216 L42.2858362,18.1242267 Z" id="Fill-1" fill="#FFFFFF"></path>
                <path d="M64.8790154,25.85292 L62.3286923,25.85292 C62.3261846,25.8516533 62.3261846,25.8503867 62.3236769,25.84912 L62.3236769,18.6316533 C62.3236769,16.4276533 61.7230846,15.2116533 59.7156769,15.2116533 C58.6624462,15.2116533 57.4838308,15.91972 57.0061154,17.05972 L57.0061154,17.0609867 L57.0061154,25.84912 C57.0048615,25.8503867 57.0036077,25.8516533 57.0023538,25.85292 L54.4520308,25.85292 C54.4507769,25.8516533 54.4495231,25.8503867 54.4482692,25.84912 L54.4482692,7.81558667 C54.4495231,7.81432 54.4507769,7.81305333 54.4520308,7.81178667 C55.0413385,7.56478667 57.0023538,7.81178667 57.0023538,7.81178667 C57.0036077,7.81305333 57.0048615,7.81432 57.0061154,7.81558667 L57.0061154,14.74172 C57.0061154,14.74552 57.0111308,14.7467867 57.0136385,14.7429867 C57.6443231,13.68532 58.9947154,12.87972 60.5682923,12.87972 C63.3781615,12.87972 64.8827769,14.9063867 64.8827769,18.12372 L64.8827769,25.84912 C64.8815231,25.8503867 64.8802692,25.8516533 64.8790154,25.85292" id="Fill-3" fill="#FFFFFF"></path>
                <path d="M74.4604062,22.2308867 L74.4604062,22.2283533 L74.4604062,20.4803533 L71.25056,20.4803533 C70.1220985,20.4803533 69.2193292,21.1643533 69.2193292,22.1789533 L69.2193292,22.30562 C69.2193292,23.14162 69.8700754,23.82562 71.3759446,23.82562 C72.7300985,23.82562 73.9337908,23.1922867 74.4604062,22.2308867 L74.4604062,22.2308867 Z M66.6602292,22.1789533 C66.6602292,20.25362 68.0657908,18.4042867 72.0279446,18.4042867 L74.4604062,18.4042867 L74.4604062,18.0736867 C74.4604062,16.1977533 73.53256,15.21102 72.0542754,15.21102 C70.87566,15.21102 70.0731985,15.8430867 69.57166,16.8551533 C69.5704062,16.8551533 69.5691523,16.85642 69.5678985,16.85642 L67.0426523,16.14962 C67.0413985,16.1470867 67.0401446,16.14582 67.0388908,16.1432867 C67.9930677,14.16982 69.7973523,12.8790867 72.1533292,12.8790867 C75.1888908,12.8790867 77.0195062,14.8563533 77.0195062,17.6936867 L77.0195062,25.8484867 C77.0169985,25.8497533 77.0157446,25.85102 77.0144908,25.8535533 L74.4604062,25.8535533 L74.4604062,24.5349533 C73.7331754,25.52422 72.5294831,26.1575533 70.92456,26.1575533 C68.2651523,26.1575533 66.6602292,24.5602867 66.6602292,22.5589533 L66.6602292,22.1789533 Z" id="Fill-5" fill="#FFFFFF"></path>
                <path d="M79.2987477,13.1879 C79.3000015,13.1866333 79.3012554,13.1853667 79.3025092,13.1841 L81.8565938,13.1841 L81.8565938,14.7547667 C82.4847708,13.6907667 83.8389246,12.8788333 85.4187708,12.8788333 C88.2273862,12.8788333 89.7332554,14.9067667 89.7332554,18.1241 L89.7332554,25.8482333 C89.7320015,25.8507667 89.7307477,25.8507667 89.7294938,25.8533 L87.1791708,25.8533 C87.1766631,25.8507667 87.1766631,25.8507667 87.1741554,25.8482333 L87.1741554,18.6307667 C87.1741554,16.4267667 86.5735631,15.2107667 84.5661554,15.2107667 C83.5129246,15.2107667 82.3343092,15.9201 81.8565938,17.0588333 L81.8565938,17.0613667 L81.8565938,25.8482333 C81.85534,25.8507667 81.8540862,25.8507667 81.8528323,25.8533 L79.3025092,25.8533 C79.3012554,25.8507667 79.3000015,25.8507667 79.2987477,25.8482333 L79.2987477,13.1879 Z" id="Fill-7" fill="#FFFFFF"></path>
                <path d="M94.1943146,18.3279067 L94.1943146,20.40524 C94.1943146,22.50284 95.7114685,24.0595733 97.4643454,23.7935733 C98.3520685,23.65804 99.0316531,23.1045067 99.4855454,22.2305067 C99.4855454,22.2305067 99.4867992,22.22924 99.4867992,22.2279733 L99.4867992,16.8079067 C99.4867992,16.80664 99.4855454,16.80664 99.4855454,16.8053733 C99.0316531,15.9313733 98.3520685,15.37784 97.4643454,15.2435733 C95.7114685,14.9775733 94.1943146,16.53684 94.1943146,18.3279067 L94.1943146,18.3279067 Z M91.6364685,18.1239733 C91.6364685,15.28664 93.1410838,12.8799733 96.1753915,12.8799733 C97.6311069,12.8799733 98.8849531,13.5639733 99.4867992,14.5013067 L99.4867992,13.1839733 L102.040884,13.1839733 C102.043392,13.18524 102.043392,13.1865067 102.045899,13.1877733 L102.045899,25.9785733 C102.045899,29.5265067 100.21403,31.7305067 97.00293,31.7305067 C94.6482069,31.7305067 92.8426685,30.4917067 92.1141838,28.3903067 C92.1154377,28.38904 92.1166915,28.3877733 92.1179454,28.38524 L94.6431915,27.7531733 C94.6444454,27.75444 94.6456992,27.7557067 94.6469531,27.7557067 C95.0745146,28.8691067 95.92713,29.4011067 97.00293,29.4011067 C98.4084915,29.4011067 99.4867992,28.4625067 99.4867992,25.8531733 L99.4867992,24.53584 C98.8849531,25.4731733 97.6311069,26.1571733 96.1753915,26.1571733 C93.1410838,26.1571733 91.6364685,23.7505067 91.6364685,20.9119067 L91.6364685,18.1239733 Z" id="Fill-9" fill="#FFFFFF"></path>
                <path d="M106.612532,18.40378 L112.172086,18.40378 C112.17334,18.4025133 112.174594,18.4012467 112.177102,18.3987133 C112.074286,16.2479133 110.821694,15.21178 109.392309,15.21178 C107.962925,15.21178 106.685255,16.2479133 106.607517,18.3987133 C106.610025,18.4012467 106.611278,18.4025133 106.612532,18.40378 L106.612532,18.40378 Z M106.612532,20.4811133 C106.611278,20.48238 106.610025,20.4836467 106.607517,20.4849133 C106.635102,22.7370467 107.838794,23.8251133 109.46754,23.8251133 C110.644902,23.8251133 111.522594,23.29438 111.874925,22.1822467 C111.876178,22.18098 111.877432,22.18098 111.878686,22.1797133 L114.479163,22.6091133 C114.480417,22.61038 114.480417,22.6116467 114.481671,22.61418 C113.80334,24.7409133 112.049209,26.1570467 109.46754,26.1570467 C106.156132,26.1570467 104.049671,23.6731133 104.049671,20.91178 L104.049671,18.1238467 C104.049671,15.33718 106.282771,12.8798467 109.392309,12.8798467 C112.503102,12.8798467 114.734948,15.33718 114.734948,18.1238467 L114.734948,20.4760467 C114.73244,20.47858 114.73244,20.47858 114.729932,20.4811133 L106.612532,20.4811133 Z" id="Fill-11" fill="#FFFFFF"></path>
                <path d="M126.219802,13.1866333 L129.023402,22.2420333 C129.024656,22.2458333 129.030925,22.2458333 129.032179,22.2420333 L131.810702,13.1866333 C131.81321,13.1853667 131.81321,13.1853667 131.815718,13.1841 L134.490172,13.1841 C134.492679,13.1853667 134.492679,13.1866333 134.493933,13.1891667 L130.358748,25.8495 C130.357495,25.8507667 130.356241,25.8520333 130.354987,25.8533 L127.676772,25.8533 C127.675518,25.8520333 127.674264,25.8507667 127.67301,25.8495 L124.893233,16.7953667 C124.891979,16.7915667 124.886964,16.7915667 124.88571,16.7953667 L122.107187,25.8495 C122.105933,25.8507667 122.104679,25.8520333 122.103425,25.8533 L119.42521,25.8533 C119.423956,25.8520333 119.422702,25.8507667 119.421448,25.8495 L115.28501,13.1891667 C115.286264,13.1866333 115.287518,13.1853667 115.288772,13.1841 L117.964479,13.1841 C117.965733,13.1853667 117.966987,13.1853667 117.968241,13.1866333 L120.746764,22.2420333 C120.748018,22.2458333 120.753033,22.2458333 120.754287,22.2420333 L123.559141,13.1866333 C123.561648,13.1853667 123.561648,13.1853667 123.564156,13.1841 L126.216041,13.1841 C126.217295,13.1853667 126.218548,13.1853667 126.219802,13.1866333" id="Fill-13" fill="#FFFFFF"></path>
                <path d="M137.150206,7.81153333 L137.150206,7.81153333 C137.856122,7.81153333 138.429129,8.3904 138.429129,9.10353333 L138.429129,9.3062 C138.429129,10.0206 137.856122,10.5982 137.150206,10.5982 C136.444291,10.5982 135.871283,10.0206 135.871283,9.3062 L135.871283,9.10353333 C135.871283,8.3904 136.444291,7.81153333 137.150206,7.81153333" id="Fill-15" fill="#FFFFFF"></path>
                <path d="M135.875421,13.18372 L138.42449,13.18372 C138.426998,13.1849867 138.426998,13.1862533 138.429505,13.18752 L138.429505,25.84912 C138.426998,25.8503867 138.426998,25.8516533 138.42449,25.85292 L135.875421,25.85292 C135.874167,25.8516533 135.872913,25.8503867 135.871659,25.84912 L135.871659,13.18752 C135.872913,13.1862533 135.874167,13.1849867 135.875421,13.18372" id="Fill-17" fill="#FFFFFF"></path>
                <path d="M146.028189,26.1571733 C143.245905,26.1571733 141.239751,24.71444 140.56142,22.1583067 C140.562674,22.1557733 140.562674,22.1545067 140.563928,22.1519733 L143.165658,21.6985067 C143.166912,21.6997733 143.168166,21.6997733 143.170674,21.70104 C143.620805,23.16784 144.625135,23.82524 145.978035,23.82524 C147.282035,23.82524 148.05942,23.16784 148.05942,22.2545733 C148.05942,21.3425733 147.508982,20.7345733 146.153574,20.5319067 L145.025112,20.3545733 C142.190166,19.8985733 140.911243,18.6319067 140.911243,16.6039733 C140.911243,14.45064 142.592651,12.8799733 145.374935,12.8799733 C147.857551,12.8799733 149.73832,14.24544 150.39032,16.54824 C150.389066,16.5507733 150.389066,16.55204 150.387812,16.5545733 L147.787335,17.0093067 C147.786082,17.00804 147.784828,17.0067733 147.783574,17.0055067 C147.556628,15.9187067 146.603705,15.21064 145.401266,15.21064 C144.222651,15.21064 143.470343,15.81864 143.470343,16.65464 C143.470343,17.5413067 144.222651,18.02264 145.426343,18.2253067 L146.604958,18.4279733 C149.714497,18.9599733 150.61852,20.25324 150.61852,22.2545733 C150.61852,24.50924 148.863135,26.1571733 146.028189,26.1571733" id="Fill-19" fill="#FFFFFF"></path>
                <g id="Group-23" transform="translate(151.715385, 12.523153)">
                    <mask id="mask-2" fill="white">
                        <use xlink:href="#path-1"></use>
                    </mask>
                    <g id="Clip-22"></g>
                    <path d="M2.96810462,5.88062667 L8.52765846,5.88062667 C8.52891231,5.87936 8.53016615,5.87809333 8.53267385,5.87556 C8.42985846,3.72476 7.17726615,2.68862667 5.74788154,2.68862667 C4.31849692,2.68862667 3.04082769,3.72476 2.96308923,5.87556 C2.96559692,5.87809333 2.96685077,5.87936 2.96810462,5.88062667 L2.96810462,5.88062667 Z M2.96810462,7.95796 C2.96685077,7.95922667 2.96559692,7.96049333 2.96308923,7.96176 C2.99067385,10.2138933 4.19436615,11.30196 5.82311231,11.30196 C7.00047385,11.30196 7.87816615,10.7712267 8.23049692,9.65909333 C8.23175077,9.65782667 8.23300462,9.65782667 8.23425846,9.65656 L10.8347354,10.08596 C10.8359892,10.0872267 10.8359892,10.0884933 10.8372431,10.0910267 C10.1589123,12.21776 8.40478154,13.6338933 5.82311231,13.6338933 C2.51170462,13.6338933 0.405243077,11.14996 0.405243077,8.38862667 L0.405243077,5.60069333 C0.405243077,2.81402667 2.63834308,0.356693333 5.74788154,0.356693333 C8.85867385,0.356693333 11.09052,2.81402667 11.09052,5.60069333 L11.09052,7.95289333 C11.0880123,7.95542667 11.0880123,7.95542667 11.0855046,7.95796 L2.96810462,7.95796 Z" id="Fill-21" fill="#FFFFFF" mask="url(#mask-2)"></path>
                </g>
                <g id="Group-2">
                    <path d="M7.64281923,34.79622 C7.81334231,35.22182 8.10423462,35.49162 8.53555769,35.62082 C10.6708577,36.2490867 15.1696577,33.41302 16.4523423,32.5567533 L10.0539654,27.32162 C9.33049615,28.4552867 6.79396538,32.66822 7.64281923,34.79622" id="Fill-24" fill="#FFFFFF"></path>
                    <g id="Group-28" transform="translate(0.000000, 16.323153)">
                        <mask id="mask-4" fill="white">
                            <use xlink:href="#path-3"></use>
                        </mask>
                        <g id="Clip-27"></g>
                        <path d="M4.49228,0.43168 C3.42149538,1.58561333 -0.420289231,6.10001333 0.0373646154,10.9741467 L6.03200308,17.44048 C5.90411077,15.8115467 6.62883385,12.75128 10.7251492,7.35401333 C9.76470308,6.36854667 5.64331077,2.10621333 4.49228,0.43168" id="Fill-26" fill="#FFFFFF" mask="url(#mask-4)"></path>
                    </g>
                    <path d="M36.01974,26.3687067 L34.8737246,24.9019067 L33.2098708,26.4257067 C33.9684477,27.11224 36.2868092,29.11864 37.9368708,29.6063067 C38.17134,29.6759733 38.2478246,29.65064 38.2490785,29.6519067 C38.2754092,29.3707067 37.2760938,27.84184 36.01974,26.3687067" id="Fill-29" fill="#FFFFFF"></path>
                    <path d="M13.4161538,6.21452 L16.4805538,4.23725333 C15.8686769,3.63052 14.2875769,2.14092 12.4920692,1.07312 C11.0150385,0.196586667 10.2476846,0.000253333333 9.92043077,0.000253333333 C9.81636154,0.000253333333 9.75743077,0.0192533333 9.73360769,0.0445866667 C9.73235385,0.04712 9.47907692,0.337186667 10.4771385,1.96105333 C12.0068308,4.44498667 13.0299692,5.75092 13.4161538,6.21452" id="Fill-31" fill="#FFFFFF"></path>
                    <path d="M21.03841,14.7497 C21.5700408,14.4647 23.5385792,13.3411667 28.1364331,10.0326333 C32.2390177,7.08383333 35.64321,6.84823333 37.11021,6.90396667 C35.8964869,5.42956667 32.6176792,1.6169 30.2428946,0.417366667 C27.3778562,-1.0279 21.8032562,2.3655 21.7468331,2.3997 L14.2814331,7.1763 C16.6236177,9.9389 20.1995869,14.0568333 21.03841,14.7497" id="Fill-33" fill="#FFFFFF"></path>
                    <path d="M38.1330977,8.36443333 C37.6980131,8.01356667 33.9690746,8.0389 30.6225592,10.1770333 L35.6768131,15.7579667 C36.4404054,14.7775667 38.8791362,11.4728333 38.6772669,9.43096667 C38.6308746,8.97116667 38.4540823,8.62156667 38.1330977,8.36443333" id="Fill-35" fill="#FFFFFF"></path>
                    <path d="M21.5686615,32.1094933 C26.9702308,36.7910933 29.9380846,37.7018267 30.5976077,37.85636 L37.6066077,30.8466267 C34.4093,29.95996 25.3226769,20.9146933 24.2418615,19.8316933 C11.7334923,7.48676 9.17940769,2.38082667 8.65906154,0.755693333 L1.41433846,7.86296 C1.38299231,8.25182667 1.42060769,10.1454933 4.29066154,14.11396 C7.62338462,18.72336 15.0524231,26.46016 21.5686615,32.1094933" id="Fill-37" fill="#FFFFFF"></path>
                </g>
            </g>
        </g>
    </g>
</svg>